<?xml version="1.0" encoding="utf-8"?>
<!-- Generator: Adobe Illustrator 16.0.4, SVG Export Plug-In . SVG Version: 6.00 Build 0)  -->
<!DOCTYPE svg PUBLIC "-//W3C//DTD SVG 1.1//EN" "http://www.w3.org/Graphics/SVG/1.1/DTD/svg11.dtd">
<svg version="1.1" id="Layer_1" xmlns="http://www.w3.org/2000/svg" xmlns:xlink="http://www.w3.org/1999/xlink" x="0px" y="0px"
	 width="136px" height="28px" viewBox="0 0 136 28" enable-background="new 0 0 136 28" xml:space="preserve">
<polygon fill="#FFFFFF" points="0,6 0,10 3,10 3,22 7,22 7,10 12,10 12,22 16,22 16,10 21,10 21,22 25,22 25,6 "/>
<path fill="#FFFFFF" d="M29,6v16h4v-4h5v4h4V6H29z M38,14h-5v-4h5V14z"/>
<path fill="#FFFFFF" d="M55,0v6h-9v1v15h13V0H55z M55,18h-5v-8h5V18z"/>
<g>
	<polygon fill="#FFFFFF" points="133,18 133,6 129,6 129,18 124,18 124,6 120,6 120,18 115,18 115,6 111,6 111,22 136,22 136,18 	
		"/>
	<path fill="#FFFFFF" d="M94,6v16h13V6H94z M103,18h-5v-8h5V18z"/>
	<path fill="#FFFFFF" d="M77,6v22h4v-6h9V6H77z M86,18h-5v-8h5V18z"/>
</g>
<polygon fill="#FFFFFF" points="70.646,14.604 72.963,12.3 72.552,11.471 69.315,11.914 67.841,9 66.926,9.134 66.347,12.348 
	63.118,12.851 62.963,13.763 65.843,15.307 65.322,18.534 66.14,18.963 68.499,16.701 71.408,18.192 72.069,17.547 "/>
</svg>
